<svg width="19" height="18" viewBox="0 0 19 18" fill="none" xmlns="http://www.w3.org/2000/svg">
<path d="M2.37493 1.875L5.21635 4.71642M16.6249 16.125L13.7838 13.2839M10.9842 14.4028C10.5035 14.494 10.0075 14.5417 9.50029 14.5417C5.95548 14.5417 2.95483 12.2119 1.94604 8.99997C2.22067 8.1256 2.64291 7.31661 3.18356 6.60219M7.82055 7.32062C8.25034 6.89083 8.84409 6.625 9.49993 6.625C10.8116 6.625 11.8749 7.68832 11.8749 9C11.8749 9.65584 11.6091 10.2496 11.1793 10.6794M7.82055 7.32062L11.1793 10.6794M7.82055 7.32062L5.21635 4.71642M11.1793 10.6794L5.21635 4.71642M11.1793 10.6794L13.7838 13.2839M5.21635 4.71642C6.45121 3.9203 7.92179 3.45833 9.50028 3.45833C13.0451 3.45833 16.0457 5.78814 17.0545 9.00003C16.4949 10.7818 15.3223 12.2922 13.7838 13.2839" stroke="#040308" stroke-opacity="0.4" stroke-width="2" stroke-linecap="round" stroke-linejoin="round"/>
</svg>
